<?xml version="1.0" encoding="UTF-8" standalone="no"?>
<!DOCTYPE svg PUBLIC "-//W3C//DTD SVG 1.1//EN"
 "http://www.w3.org/Graphics/SVG/1.1/DTD/svg11.dtd">
<!-- Generated by graphviz version 2.40.1 (20161225.0304)
 -->
<!-- Title: %3 Pages: 1 -->
<svg width="471pt" height="1130pt"
 viewBox="0.00 0.00 470.96 1130.00" xmlns="http://www.w3.org/2000/svg" xmlns:xlink="http://www.w3.org/1999/xlink">
<g id="graph0" class="graph" transform="scale(1 1) rotate(0) translate(4 1126)">
<title>%3</title>
<polygon fill="#ffffff" stroke="transparent" points="-4,4 -4,-1126 466.9577,-1126 466.9577,4 -4,4"/>
<g id="clust12" class="cluster">
<title>cluster_11</title>
<polygon fill="none" stroke="#000000" points="244.6946,-889 244.6946,-1020 418.4902,-1020 418.4902,-889 244.6946,-889"/>
<text text-anchor="middle" x="331.5924" y="-1003.4" font-family="Times,serif" font-size="14.00" fill="#000000">main</text>
</g>
<g id="clust11" class="cluster">
<title>cluster_10</title>
<polygon fill="none" stroke="#000000" points="8,-983 8,-1114 188.2271,-1114 188.2271,-983 8,-983"/>
<text text-anchor="middle" x="98.1136" y="-1097.4" font-family="Times,serif" font-size="14.00" fill="#000000">main</text>
</g>
<g id="clust10" class="cluster">
<title>cluster_9</title>
<polygon fill="none" stroke="#000000" points="208.2271,-724 208.2271,-855 454.9577,-855 454.9577,-724 208.2271,-724"/>
<text text-anchor="middle" x="331.5924" y="-838.4" font-family="Times,serif" font-size="14.00" fill="#000000">main</text>
</g>
<g id="clust9" class="cluster">
<title>cluster_8</title>
<polygon fill="none" stroke="#000000" points="8.6896,-724 8.6896,-928 187.5375,-928 187.5375,-724 8.6896,-724"/>
<text text-anchor="middle" x="98.1136" y="-911.4" font-family="Times,serif" font-size="14.00" fill="#000000">main</text>
</g>
<g id="clust8" class="cluster">
<title>cluster_7</title>
<polygon fill="none" stroke="#000000" points="248.4618,-531 248.4618,-716 414.723,-716 414.723,-531 248.4618,-531"/>
<text text-anchor="middle" x="331.5924" y="-699.4" font-family="Times,serif" font-size="14.00" fill="#000000">main</text>
</g>
<g id="clust7" class="cluster">
<title>cluster_6</title>
<polygon fill="none" stroke="#000000" points="251.6863,-392 251.6863,-523 411.4986,-523 411.4986,-392 251.6863,-392"/>
<text text-anchor="middle" x="331.5924" y="-506.4" font-family="Times,serif" font-size="14.00" fill="#000000">main</text>
</g>
<g id="clust6" class="cluster">
<title>cluster_5</title>
<polygon fill="none" stroke="#000000" points="20.8824,-360 20.8824,-491 175.3447,-491 175.3447,-360 20.8824,-360"/>
<text text-anchor="middle" x="98.1136" y="-474.4" font-family="Times,serif" font-size="14.00" fill="#000000">main</text>
</g>
<g id="clust5" class="cluster">
<title>cluster_4</title>
<polygon fill="none" stroke="#000000" points="36.4368,-499 36.4368,-630 159.7903,-630 159.7903,-499 36.4368,-499"/>
<text text-anchor="middle" x="98.1136" y="-613.4" font-family="Times,serif" font-size="14.00" fill="#000000">main</text>
</g>
<g id="clust4" class="cluster">
<title>cluster_3</title>
<polygon fill="none" stroke="#000000" points="27.8547,-201 27.8547,-332 168.3724,-332 168.3724,-201 27.8547,-201"/>
<text text-anchor="middle" x="98.1136" y="-315.4" font-family="Times,serif" font-size="14.00" fill="#000000">main</text>
</g>
<g id="clust3" class="cluster">
<title>cluster_2</title>
<polygon fill="none" stroke="#000000" points="245.2373,-201 245.2373,-332 417.9475,-332 417.9475,-201 245.2373,-201"/>
<text text-anchor="middle" x="331.5924" y="-315.4" font-family="Times,serif" font-size="14.00" fill="#000000">main</text>
</g>
<g id="clust2" class="cluster">
<title>cluster_1</title>
<polygon fill="none" stroke="#000000" points="244.7043,-8 244.7043,-139 418.4805,-139 418.4805,-8 244.7043,-8"/>
<text text-anchor="middle" x="331.5924" y="-122.4" font-family="Times,serif" font-size="14.00" fill="#000000">main</text>
</g>
<g id="clust1" class="cluster">
<title>cluster_0</title>
<polygon fill="none" stroke="#000000" points="12.8381,-62 12.8381,-193 183.389,-193 183.389,-62 12.8381,-62"/>
<text text-anchor="middle" x="98.1136" y="-176.4" font-family="Times,serif" font-size="14.00" fill="#000000">main</text>
</g>
<!-- constructor_0 -->
<g id="node1" class="node">
<title>constructor_0</title>
<text text-anchor="middle" x="98.1136" y="-137.8" font-family="Times,serif" font-size="14.00" fill="#000000">NewDemoONe</text>
</g>
<!-- *main.DemoOne -->
<g id="node2" class="node">
<title>*main.DemoOne</title>
<ellipse fill="none" stroke="#000000" cx="98.1136" cy="-88" rx="77.0515" ry="18"/>
<text text-anchor="middle" x="98.1136" y="-83.8" font-family="Times,serif" font-size="14.00" fill="#000000">*main.DemoOne</text>
</g>
<!-- constructor_1 -->
<g id="node3" class="node">
<title>constructor_1</title>
<text text-anchor="middle" x="331.5924" y="-83.8" font-family="Times,serif" font-size="14.00" fill="#000000">NewDemoTwo</text>
</g>
<!-- constructor_1&#45;&gt;*main.DemoOne -->
<g id="edge1" class="edge">
<title>constructor_1&#45;&gt;*main.DemoOne</title>
<path fill="none" stroke="#000000" d="M244.7043,-88C225.421,-88 204.9728,-88 185.6631,-88"/>
<polygon fill="#000000" stroke="#000000" points="185.4217,-84.5001 175.4217,-88 185.4216,-91.5001 185.4217,-84.5001"/>
</g>
<!-- *main.DemoTwo -->
<g id="node4" class="node">
<title>*main.DemoTwo</title>
<ellipse fill="none" stroke="#000000" cx="331.5924" cy="-34" rx="78.7764" ry="18"/>
<text text-anchor="middle" x="331.5924" y="-29.8" font-family="Times,serif" font-size="14.00" fill="#000000">*main.DemoTwo</text>
</g>
<!-- constructor_2 -->
<g id="node5" class="node">
<title>constructor_2</title>
<text text-anchor="middle" x="331.5924" y="-276.8" font-family="Times,serif" font-size="14.00" fill="#000000">NewUniversity</text>
</g>
<!-- main.IPerson -->
<g id="node7" class="node">
<title>main.IPerson</title>
<ellipse fill="none" stroke="#000000" cx="98.1136" cy="-281" rx="62.0187" ry="18"/>
<text text-anchor="middle" x="98.1136" y="-276.8" font-family="Times,serif" font-size="14.00" fill="#000000">main.IPerson</text>
</g>
<!-- constructor_2&#45;&gt;main.IPerson -->
<g id="edge2" class="edge">
<title>constructor_2&#45;&gt;main.IPerson</title>
<path fill="none" stroke="#000000" d="M245.2403,-281C220.8737,-281 194.6087,-281 171.1087,-281"/>
<polygon fill="#000000" stroke="#000000" points="170.7464,-277.5001 160.7464,-281 170.7463,-284.5001 170.7464,-277.5001"/>
</g>
<!-- *main.University -->
<g id="node6" class="node">
<title>*main.University</title>
<ellipse fill="none" stroke="#000000" cx="331.5924" cy="-227" rx="78.2104" ry="18"/>
<text text-anchor="middle" x="331.5924" y="-222.8" font-family="Times,serif" font-size="14.00" fill="#000000">*main.University</text>
</g>
<!-- constructor_3 -->
<g id="node8" class="node">
<title>constructor_3</title>
<text text-anchor="middle" x="98.1136" y="-222.8" font-family="Times,serif" font-size="14.00" fill="#000000">NewPerson</text>
</g>
<!-- constructor_4 -->
<g id="node9" class="node">
<title>constructor_4</title>
<text text-anchor="middle" x="98.1136" y="-574.8" font-family="Times,serif" font-size="14.00" fill="#000000">NewAge</text>
</g>
<!-- *main.Age -->
<g id="node10" class="node">
<title>*main.Age</title>
<ellipse fill="none" stroke="#000000" cx="98.1136" cy="-525" rx="53.8541" ry="18"/>
<text text-anchor="middle" x="98.1136" y="-520.8" font-family="Times,serif" font-size="14.00" fill="#000000">*main.Age</text>
</g>
<!-- constructor_5 -->
<g id="node11" class="node">
<title>constructor_5</title>
<text text-anchor="middle" x="98.1136" y="-435.8" font-family="Times,serif" font-size="14.00" fill="#000000">NewAddress</text>
</g>
<!-- *main.Address -->
<g id="node12" class="node">
<title>*main.Address</title>
<ellipse fill="none" stroke="#000000" cx="98.1136" cy="-386" rx="69.4631" ry="18"/>
<text text-anchor="middle" x="98.1136" y="-381.8" font-family="Times,serif" font-size="14.00" fill="#000000">*main.Address</text>
</g>
<!-- constructor_6 -->
<g id="node13" class="node">
<title>constructor_6</title>
<text text-anchor="middle" x="331.5924" y="-467.8" font-family="Times,serif" font-size="14.00" fill="#000000">NewManager</text>
</g>
<!-- constructor_6&#45;&gt;*main.Age -->
<g id="edge4" class="edge">
<title>constructor_6&#45;&gt;*main.Age</title>
<path fill="none" stroke="#000000" d="M251.6897,-490.138C219.1292,-497.5293 182.3088,-505.8876 152.8847,-512.5669"/>
<polygon fill="#000000" stroke="#000000" points="151.9328,-509.1938 142.9557,-514.8208 153.4825,-516.0202 151.9328,-509.1938"/>
</g>
<!-- constructor_6&#45;&gt;*main.Address -->
<g id="edge3" class="edge">
<title>constructor_6&#45;&gt;*main.Address</title>
<path fill="none" stroke="#000000" d="M251.6911,-464.2126C236.3223,-460.1218 221.0419,-454.0298 208.2271,-445 194.5173,-435.3395 201.5618,-423.172 188.2271,-413 181.2455,-407.6744 173.2217,-403.3948 164.9013,-399.9567"/>
<polygon fill="#000000" stroke="#000000" points="166.0138,-396.6362 155.4211,-396.4218 163.5681,-403.1951 166.0138,-396.6362"/>
</g>
<!-- *main.Manager -->
<g id="node14" class="node">
<title>*main.Manager</title>
<ellipse fill="none" stroke="#000000" cx="331.5924" cy="-418" rx="71.8124" ry="18"/>
<text text-anchor="middle" x="331.5924" y="-413.8" font-family="Times,serif" font-size="14.00" fill="#000000">*main.Manager</text>
</g>
<!-- constructor_7 -->
<g id="node15" class="node">
<title>constructor_7</title>
<text text-anchor="middle" x="331.5924" y="-660.8" font-family="Times,serif" font-size="14.00" fill="#000000">NewMoreOut</text>
</g>
<!-- *main.Out1Data -->
<g id="node16" class="node">
<title>*main.Out1Data</title>
<ellipse fill="none" stroke="#000000" cx="331.5924" cy="-611" rx="75.2615" ry="18"/>
<text text-anchor="middle" x="331.5924" y="-606.8" font-family="Times,serif" font-size="14.00" fill="#000000">*main.Out1Data</text>
</g>
<!-- *main.Out2Data -->
<g id="node17" class="node">
<title>*main.Out2Data</title>
<ellipse fill="none" stroke="#000000" cx="331.5924" cy="-557" rx="75.2615" ry="18"/>
<text text-anchor="middle" x="331.5924" y="-552.8" font-family="Times,serif" font-size="14.00" fill="#000000">*main.Out2Data</text>
</g>
<!-- constructor_8 -->
<g id="node18" class="node">
<title>constructor_8</title>
<text text-anchor="middle" x="98.1136" y="-872.8" font-family="Times,serif" font-size="14.00" fill="#000000">NewWrapSomeType</text>
</g>
<!-- *main.SomeType[name=s1] -->
<g id="node19" class="node">
<title>*main.SomeType[name=s1]</title>
<ellipse fill="none" stroke="#000000" cx="98.1136" cy="-818" rx="81.3479" ry="22.7556"/>
<text text-anchor="start" x="48.5382" y="-818.4" font-family="Times,serif" font-size="14.00" fill="#000000">*main.SomeType</text>
<text text-anchor="start" x="79.0916" y="-808" font-family="Times,serif" font-size="10.00" fill="#000000">Name: s1</text>
</g>
<!-- *main.SomeType[name=s2] -->
<g id="node20" class="node">
<title>*main.SomeType[name=s2]</title>
<ellipse fill="none" stroke="#000000" cx="98.1136" cy="-755" rx="81.3479" ry="22.7556"/>
<text text-anchor="start" x="48.5382" y="-755.4" font-family="Times,serif" font-size="14.00" fill="#000000">*main.SomeType</text>
<text text-anchor="start" x="79.0916" y="-745" font-family="Times,serif" font-size="10.00" fill="#000000">Name: s2</text>
</g>
<!-- constructor_9 -->
<g id="node21" class="node">
<title>constructor_9</title>
<text text-anchor="middle" x="331.5924" y="-799.8" font-family="Times,serif" font-size="14.00" fill="#000000">NewBusiDataSomeType</text>
</g>
<!-- constructor_9&#45;&gt;*main.SomeType[name=s1] -->
<g id="edge5" class="edge">
<title>constructor_9&#45;&gt;*main.SomeType[name=s1]</title>
<path fill="none" stroke="#000000" d="M208.2301,-811.3971C201.4614,-811.803 194.7225,-812.2071 188.1048,-812.6039"/>
<polygon fill="#000000" stroke="#000000" points="187.6852,-809.1227 177.9127,-813.215 188.1043,-816.1101 187.6852,-809.1227"/>
</g>
<!-- constructor_9&#45;&gt;*main.SomeType[name=s2] -->
<g id="edge6" class="edge">
<title>constructor_9&#45;&gt;*main.SomeType[name=s2]</title>
<path fill="none" stroke="#000000" d="M208.232,-778.1105C196.3999,-775.6273 184.6588,-773.1632 173.497,-770.8207"/>
<polygon fill="#000000" stroke="#000000" points="173.9448,-767.3384 163.4391,-768.7098 172.5069,-774.1892 173.9448,-767.3384"/>
</g>
<!-- *main.BusiDataSomeType -->
<g id="node22" class="node">
<title>*main.BusiDataSomeType</title>
<ellipse fill="none" stroke="#000000" cx="331.5924" cy="-750" rx="115.2308" ry="18"/>
<text text-anchor="middle" x="331.5924" y="-745.8" font-family="Times,serif" font-size="14.00" fill="#000000">*main.BusiDataSomeType</text>
</g>
<!-- constructor_10 -->
<g id="node23" class="node">
<title>constructor_10</title>
<text text-anchor="middle" x="98.1136" y="-1058.8" font-family="Times,serif" font-size="14.00" fill="#000000">NewOptionTwo</text>
</g>
<!-- *main.OptionTwo -->
<g id="node24" class="node">
<title>*main.OptionTwo</title>
<ellipse fill="none" stroke="#000000" cx="98.1136" cy="-1009" rx="82.2273" ry="18"/>
<text text-anchor="middle" x="98.1136" y="-1004.8" font-family="Times,serif" font-size="14.00" fill="#000000">*main.OptionTwo</text>
</g>
<!-- constructor_11 -->
<g id="node25" class="node">
<title>constructor_11</title>
<text text-anchor="middle" x="331.5924" y="-964.8" font-family="Times,serif" font-size="14.00" fill="#000000">NewOutOPtion</text>
</g>
<!-- constructor_11&#45;&gt;*main.OptionTwo -->
<g id="edge8" class="edge">
<title>constructor_11&#45;&gt;*main.OptionTwo</title>
<path fill="none" stroke="#000000" d="M244.6951,-983.8874C221.2268,-987.908 196.0337,-992.2241 173.2679,-996.1244"/>
<polygon fill="#000000" stroke="#000000" points="172.4158,-992.7193 163.1504,-997.8578 173.5979,-999.6188 172.4158,-992.7193"/>
</g>
<!-- *main.OptionOne -->
<g id="node27" class="node">
<title>*main.OptionOne</title>
<ellipse fill="none" stroke="#000000" cx="98.1136" cy="-955" rx="80.5017" ry="18"/>
<text text-anchor="middle" x="98.1136" y="-950.8" font-family="Times,serif" font-size="14.00" fill="#000000">*main.OptionOne</text>
</g>
<!-- constructor_11&#45;&gt;*main.OptionOne -->
<g id="edge7" class="edge">
<title>constructor_11&#45;&gt;*main.OptionOne</title>
<path fill="none" stroke="#000000" stroke-dasharray="5,2" d="M244.6947,-963.7894C225.5599,-962.642 205.2784,-961.4259 186.1009,-960.276"/>
<polygon fill="#000000" stroke="#000000" points="186.1567,-956.7731 175.9651,-959.6682 185.7377,-963.7606 186.1567,-956.7731"/>
</g>
<!-- *main.OutOption -->
<g id="node26" class="node">
<title>*main.OutOption</title>
<ellipse fill="none" stroke="#000000" cx="331.5924" cy="-915" rx="78.7957" ry="18"/>
<text text-anchor="middle" x="331.5924" y="-910.8" font-family="Times,serif" font-size="14.00" fill="#000000">*main.OutOption</text>
</g>
</g>
</svg>
